<?xml version="1.0" encoding="utf-8"?>
<!-- Generator: Adobe Illustrator 16.0.4, SVG Export Plug-In . SVG Version: 6.00 Build 0)  -->
<!DOCTYPE svg PUBLIC "-//W3C//DTD SVG 1.1//EN" "http://www.w3.org/Graphics/SVG/1.1/DTD/svg11.dtd">
<svg version="1.1" id="Layer_1" xmlns="http://www.w3.org/2000/svg" xmlns:xlink="http://www.w3.org/1999/xlink" x="0px" y="0px"
	 width="426.667px" height="186.551px" viewBox="0 0 426.667 186.551" enable-background="new 0 0 426.667 186.551"
	 xml:space="preserve">
<g>
	<g>
		<rect fill="#3D5567" width="426.667" height="186.551"/>
		<path fill="#F48120" d="M284.958,38.301c-1.865,0-3.431,1.207-4.009,2.874h-9.687c-0.577-1.667-2.146-2.874-4.009-2.874
			c-2.354,0-4.259,1.909-4.259,4.261c0,2.354,1.904,4.261,4.259,4.261c1.884,0,3.463-1.23,4.026-2.922h9.653
			c0.562,1.691,2.143,2.922,4.024,2.922c2.354,0,4.259-1.907,4.259-4.261C289.217,40.21,287.312,38.301,284.958,38.301"/>
		<path fill="#FFFFFF" d="M113.697,65.699c-2.006,0-4.034-0.975-4.034-3.146V50.257h-5.723v12.297c0,4.584,3.922,7.665,9.757,7.665
			c6.041,0,9.793-2.937,9.793-7.665V50.257h-5.691v12.297C117.799,64.492,116.228,65.699,113.697,65.699"/>
		<path fill="#FFFFFF" d="M146.452,58.897l-0.088-0.045l0.084-0.051c1.642-1.022,2.548-2.37,2.548-3.793
			c0-0.952-0.42-1.939-1.152-2.71c-1.282-1.354-3.393-2.042-6.274-2.042h-12.297v19.381h12.743c3.084,0,4.756-0.527,6.173-1.94
			c1.217-1.188,1.833-2.572,1.833-4.112C150.022,61.537,148.89,60.045,146.452,58.897 M140.814,54.473
			c0.942,0,1.564,0.202,1.961,0.636c0.242,0.269,0.359,0.571,0.359,0.926c0,0.438-0.163,0.842-0.462,1.14
			c-0.395,0.354-1.002,0.528-1.858,0.528H135v-3.229 M143.633,64.789c-0.444,0.442-1.062,0.633-2.063,0.633H135v-3.848h6.571
			c1.249,0,1.775,0.381,2.063,0.667c0.322,0.323,0.53,0.82,0.53,1.272C144.164,64.206,143.757,64.665,143.633,64.789"/>
		<path fill="#FFFFFF" d="M181.02,52.606c-1.476-1.581-3.652-2.349-6.65-2.349h-11.542v19.38h5.69v-6.725h5.852
			c2.92,0,4.991-0.693,6.514-2.182c1.141-1.104,1.768-2.575,1.768-4.148C182.651,55.121,182.087,53.745,181.02,52.606
			 M176.396,57.927c-0.599,0.6-1.415,0.6-1.684,0.6h-6.195v-3.883h6.195c0.53,0,1.265,0.111,1.757,0.635
			c0.324,0.365,0.526,0.863,0.526,1.305C176.996,57.05,176.772,57.552,176.396,57.927"/>
		<polygon fill="#FFFFFF" points="246.097,60.034 246.079,60.01 239.786,50.257 234.621,50.257 234.621,69.638 240.172,69.638 
			240.172,60.508 240.429,60.508 240.443,60.534 244.957,67.373 247.023,67.373 251.555,60.508 251.772,60.508 251.772,69.638 
			257.499,69.638 257.499,50.257 252.466,50.257 246.193,60.034 		"/>
		<rect x="263.523" y="50.257" fill="#FFFFFF" width="5.687" height="19.38"/>
		<path fill="#FFFFFF" d="M92.277,65.331v-15.08h-5.441v16.267c0,0-0.206,3.12,2.484,3.12h12.097v-4.307H92.277z"/>
		<path fill="#FFFFFF" d="M280.535,65.384v-3.345h10.392v-4.1h-10.392v-3.072h12.108v-4.609h-17.548V66.59
			c0,0-0.038,3.102,2.557,3.102h15.68v-4.308H280.535z"/>
		<path fill="#FFFFFF" d="M216.806,65.384v-3.348h10.39v-4.1h-10.39v-3.069h12.11v-4.609h-17.551v16.33c0,0-0.035,3.102,2.561,3.102
			h15.675v-4.306H216.806z"/>
		<path fill="#FFFFFF" d="M81.662,64.873c-1.785-1.689-4.571-0.034-4.571-0.034c-1.317,0.631-2.629,0.98-3.818,0.98
			c-3.821,0-6.595-2.468-6.595-5.872c0-3.387,2.702-5.842,6.423-5.842c1.278,0,2.779,0.393,4.195,1.043c0,0,2.143,1.183,3.834-0.771
			l1.408-1.439c-2.877-1.989-6.67-3.176-10.193-3.176c-6.45,0-11.314,4.38-11.314,10.185c0,5.878,4.817,10.148,11.453,10.148
			c5.154,0,8.853-2.312,10.68-3.784L81.662,64.873z"/>
		<path fill="#FFFFFF" d="M202.606,61.972c2.332-1.166,3.738-3.055,3.738-5.385c0-1.614-0.652-3.055-1.749-4.153
			c-1.337-1.337-3.328-2.231-6.585-2.231h-11.598v19.487h5.8v-6.722h4.699l2.848,4.896c0.011,0.021,1.073,1.826,3.305,1.826h4.31
			L202.606,61.972z M200,57.923c-0.345,0.345-0.927,0.548-1.648,0.548h-6.139v-3.774h6.139c0.582,0,1.27,0.141,1.715,0.62
			c0.309,0.341,0.516,0.822,0.516,1.271C200.583,57.064,200.341,57.577,200,57.923"/>
		<path fill="#FFFFFF" d="M314.487,61.972c2.334-1.164,3.741-3.054,3.741-5.385c0-1.614-0.652-3.058-1.751-4.153
			c-1.335-1.337-3.326-2.229-6.587-2.229h-11.598v19.487h5.802v-6.724h4.697l2.85,4.896c0.011,0.021,1.074,1.828,3.307,1.828h4.311
			L314.487,61.972z M311.884,57.925c-0.346,0.343-0.93,0.546-1.65,0.546h-6.139v-3.773h6.139c0.582,0,1.271,0.14,1.717,0.619
			c0.308,0.341,0.513,0.825,0.513,1.271C312.463,57.067,312.224,57.579,311.884,57.925"/>
		<path fill="#FFFFFF" d="M365.439,56.117c-0.174-0.332-0.719-0.625-1.284-0.24c-0.084,0.062-1.75,1.242-1.75,1.242
			c-1.031-0.495-1.854-0.879-2.558-1.209c-0.332-0.16-0.753-0.345-1.359-0.353c-1.221-0.017-2.562,0.992-2.567,2.488
			c-0.005,0.775-0.005,7.675-0.002,8.669c0.007,1.506,1.359,2.925,3.034,2.918h4.431c1.942,0.003,2.337-1.679,2.32-2.196
			c0-0.834-0.002-3.29-0.002-3.653c0-0.295-0.009-0.781,0.59-0.857c0.431-0.055,0.847-0.112,1.084-0.183
			c0.422-0.123,0.505-0.543,0.433-0.81C367.206,59.713,366.064,57.284,365.439,56.117"/>
		<path fill="#FFFFFF" d="M370.516,55.468c0.062-2.442-1.794-5.224-5.21-5.395c-2.774-0.062-4.312,0.933-4.878,1.21
			c-0.043,0.022-0.115,0.013-0.177-0.062c-0.511-0.504-1.604-1.256-2.833-1.609c-0.183-0.039-0.2-0.31,0.013-0.334
			c2.625-0.278,4.923,0.016,5.882,0.174c0.217,0.033,0.389-0.095,0.298-0.299c-0.063-0.153-0.12-0.226-0.236-0.465
			c-0.229-0.503-0.85-1.036-1.635-1.254c-2.062-0.576-5.579-1.071-8.712-1.088c-3.521-0.02-7.238,0.68-8.176,0.888
			c-0.226,0.049-0.544,0.132-0.598,0.143c-0.257,0.051-0.315,0.296-0.203,0.415c0.066,0.08,0.257,0.243,0.354,0.357
			c0.115,0.141,0.17,0.352-0.051,0.563l-6.518,5.858h4.462l0.048-0.005c0.288-0.007,0.563,0.258,0.565,0.589
			c0.002,0.303-0.239,0.586-0.542,0.586l-0.04,0.004h-5.795l-1.771,1.609h7.586l0.042-0.004c0.3,0.004,0.531,0.313,0.524,0.589
			c-0.003,0.267-0.222,0.581-0.524,0.581l-0.048,0.002h-8.88l-1.774,1.606h15.318l0.048,0.001c0.3,0,0.537,0.31,0.542,0.579
			c0.003,0.315-0.221,0.6-0.53,0.598l-0.042-0.005h-15.34v1.604h15.307h0.049c0.352,0.006,0.554,0.322,0.552,0.615
			c0,0.265-0.257,0.55-0.562,0.55l-0.039,0.002h-15.303l-0.006,1.614h19.988l0.049-0.002c0.328,0.014,0.542,0.295,0.535,0.607
			c-0.009,0.271-0.235,0.56-0.535,0.56l-0.042-0.003h-14.613v1.612h14.412h0.301c0.273,0,0.506,0.336,0.506,0.606
			s-0.237,0.565-0.51,0.565h-0.297h-14.413v1.602h16.912c0,0,0.613-1.417,0.613-2.984c0-0.084,0.004-10.866,0.004-10.866
			c0-0.857,0.349-2.305,2.11-2.69c0.049-0.011,0.096-0.021,0.146-0.029c4.995-1.18,10.141-0.106,13.038,1.147
			C370.413,56.062,370.534,55.646,370.516,55.468"/>
		<path fill="#FFFFFF" d="M342.442,76.807c0,0,2.168,0.006,3.402,0c3.044-0.019,5.04-1.64,5.04-1.64h-8.438L342.442,76.807z"/>
		<path fill="#FFFFFF" d="M342.442,74.013h9.785c0.452-0.453,1.032-1.29,1.185-1.603h-10.966L342.442,74.013z"/>
		<path fill="#FFFFFF" d="M341.399,75.832c0-0.158-0.098-0.222-0.275-0.222h-0.278v0.749h0.139v-0.323h0.084l0.193,0.323h0.143
			l-0.199-0.329C341.327,76.022,341.399,75.959,341.399,75.832 M340.984,75.932v-0.215h0.124c0.072,0,0.152,0.015,0.152,0.104
			c0,0.101-0.071,0.111-0.153,0.111H340.984z"/>
		<path fill="#FFFFFF" d="M341.1,75.327c-0.365,0-0.661,0.297-0.661,0.661c0,0.363,0.296,0.661,0.661,0.661
			c0.364,0,0.661-0.298,0.661-0.661C341.761,75.624,341.464,75.327,341.1,75.327 M341.1,76.52c-0.275,0-0.499-0.223-0.499-0.531
			s0.224-0.534,0.499-0.534c0.276,0,0.499,0.226,0.499,0.534S341.376,76.52,341.1,76.52"/>
		<path fill="#F48120" d="M242.254,115.799c-0.717,0-1.318,0.464-1.541,1.105h-3.723c-0.222-0.642-0.825-1.105-1.541-1.105
			c-0.905,0-1.637,0.734-1.637,1.639c0,0.903,0.731,1.637,1.637,1.637c0.724,0,1.331-0.473,1.547-1.123h3.711
			c0.216,0.65,0.824,1.123,1.547,1.123c0.904,0,1.637-0.733,1.637-1.637C243.891,116.533,243.158,115.799,242.254,115.799"/>
		<path fill="#FFFFFF" d="M176.426,126.33c-0.771,0-1.55-0.374-1.55-1.209v-4.726h-2.2v4.726c0,1.762,1.507,2.946,3.75,2.946
			c2.322,0,3.764-1.129,3.764-2.946v-4.726h-2.187v4.726C178.003,125.866,177.399,126.33,176.426,126.33"/>
		<path fill="#FFFFFF" d="M189.017,123.716l-0.034-0.017l0.032-0.02c0.631-0.394,0.98-0.911,0.98-1.458
			c0-0.366-0.162-0.745-0.443-1.042c-0.493-0.521-1.305-0.785-2.412-0.785h-4.727v7.45h4.899c1.185,0,1.827-0.203,2.372-0.746
			c0.468-0.457,0.705-0.989,0.705-1.581C190.389,124.73,189.953,124.156,189.017,123.716 M186.849,122.016
			c0.362,0,0.601,0.076,0.754,0.244c0.093,0.103,0.138,0.22,0.138,0.355c0,0.168-0.063,0.323-0.177,0.438
			c-0.152,0.137-0.386,0.202-0.715,0.202h-2.235v-1.24 M187.933,125.98c-0.171,0.17-0.408,0.243-0.793,0.243h-2.526v-1.479h2.526
			c0.48,0,0.682,0.147,0.793,0.257c0.124,0.124,0.204,0.315,0.204,0.489C188.137,125.756,187.981,125.933,187.933,125.98"/>
		<path fill="#FFFFFF" d="M202.303,121.298c-0.567-0.608-1.404-0.903-2.556-0.903h-4.437v7.449h2.187v-2.584h2.25
			c1.122,0,1.918-0.268,2.504-0.839c0.438-0.425,0.679-0.99,0.679-1.595C202.93,122.265,202.714,121.735,202.303,121.298
			 M200.526,123.343c-0.23,0.229-0.544,0.229-0.647,0.229h-2.382v-1.491h2.382c0.203,0,0.486,0.043,0.675,0.243
			c0.125,0.141,0.202,0.332,0.202,0.502C200.756,123.006,200.671,123.198,200.526,123.343"/>
		<polygon fill="#FFFFFF" points="227.316,124.152 227.31,124.144 224.892,120.395 222.905,120.395 222.905,127.844 225.04,127.844 
			225.04,124.335 225.138,124.335 225.144,124.345 226.879,126.974 227.673,126.974 229.415,124.335 229.499,124.335 
			229.499,127.844 231.699,127.844 231.699,120.395 229.765,120.395 227.354,124.152 		"/>
		<rect x="234.015" y="120.395" fill="#FFFFFF" width="2.187" height="7.448"/>
		<path fill="#FFFFFF" d="M168.193,126.188v-5.796h-2.091v6.252c0,0-0.08,1.199,0.954,1.199h4.65v-1.655H168.193z"/>
		<path fill="#FFFFFF" d="M240.554,126.209v-1.285h3.994v-1.576h-3.994v-1.181h4.655v-1.772h-6.745v6.278
			c0,0-0.015,1.192,0.982,1.192h6.026v-1.656H240.554z"/>
		<path fill="#FFFFFF" d="M216.059,126.209v-1.286h3.993v-1.577h-3.993v-1.179h4.654v-1.772h-6.746v6.277
			c0,0-0.014,1.192,0.984,1.192h6.025v-1.655H216.059z"/>
		<path fill="#FFFFFF" d="M164.113,126.013c-0.686-0.649-1.757-0.014-1.757-0.014c-0.506,0.242-1.01,0.378-1.468,0.378
			c-1.468,0-2.534-0.949-2.534-2.258c0-1.302,1.038-2.245,2.468-2.245c0.492,0,1.069,0.15,1.613,0.4c0,0,0.824,0.455,1.473-0.296
			l0.542-0.553c-1.106-0.766-2.564-1.222-3.918-1.222c-2.479,0-4.349,1.684-4.349,3.915c0,2.26,1.852,3.9,4.402,3.9
			c1.981,0,3.403-0.888,4.105-1.454L164.113,126.013z"/>
		<path fill="#FFFFFF" d="M210.601,124.897c0.896-0.448,1.437-1.175,1.437-2.07c0-0.62-0.251-1.173-0.673-1.596
			c-0.513-0.515-1.279-0.857-2.53-0.857h-4.459v7.49h2.23v-2.584h1.806l1.095,1.882c0.004,0.008,0.412,0.702,1.27,0.702h1.657
			L210.601,124.897z M209.599,123.341c-0.132,0.132-0.356,0.211-0.634,0.211h-2.359v-1.45h2.359c0.224,0,0.489,0.054,0.66,0.237
			c0.119,0.132,0.198,0.316,0.198,0.488C209.822,123.011,209.729,123.208,209.599,123.341"/>
		<path fill="#FFFFFF" d="M253.604,124.897c0.897-0.447,1.438-1.174,1.438-2.069c0-0.621-0.252-1.176-0.674-1.598
			c-0.513-0.514-1.278-0.855-2.531-0.855h-4.458v7.49h2.229v-2.586h1.806l1.096,1.883c0.004,0.008,0.413,0.703,1.271,0.703h1.657
			L253.604,124.897z M252.604,123.342c-0.133,0.132-0.357,0.21-0.634,0.21h-2.36v-1.451h2.36c0.223,0,0.487,0.054,0.66,0.238
			c0.117,0.132,0.196,0.318,0.196,0.489C252.826,123.012,252.734,123.21,252.604,123.342"/>
		<path fill="#FFFFFF" d="M273.189,122.647c-0.067-0.128-0.276-0.24-0.494-0.093c-0.032,0.023-0.673,0.478-0.673,0.478
			c-0.396-0.19-0.712-0.338-0.982-0.465c-0.128-0.062-0.29-0.132-0.522-0.136c-0.47-0.006-0.985,0.383-0.987,0.957
			c-0.002,0.298-0.002,2.949,0,3.331c0.002,0.579,0.521,1.125,1.166,1.122h1.703c0.746,0.001,0.897-0.645,0.891-0.844
			c0-0.321,0-1.265,0-1.404c0-0.113-0.004-0.301,0.227-0.33c0.166-0.021,0.325-0.043,0.417-0.069
			c0.161-0.048,0.193-0.209,0.167-0.312C273.868,124.029,273.43,123.095,273.189,122.647"/>
		<path fill="#FFFFFF" d="M275.14,122.397c0.024-0.939-0.689-2.008-2.003-2.073c-1.065-0.024-1.656,0.358-1.875,0.465
			c-0.016,0.009-0.044,0.005-0.066-0.023c-0.197-0.194-0.617-0.483-1.089-0.618c-0.071-0.016-0.077-0.12,0.005-0.129
			c1.009-0.107,1.892,0.006,2.26,0.067c0.084,0.013,0.15-0.037,0.115-0.115c-0.025-0.06-0.046-0.087-0.092-0.18
			c-0.088-0.192-0.325-0.397-0.628-0.481c-0.793-0.221-2.145-0.411-3.349-0.418c-1.353-0.008-2.782,0.262-3.143,0.341
			c-0.086,0.02-0.209,0.051-0.229,0.055c-0.099,0.021-0.121,0.114-0.079,0.159c0.026,0.031,0.1,0.094,0.136,0.139
			c0.046,0.054,0.066,0.135-0.019,0.217l-2.505,2.251h1.715l0.019-0.001c0.11-0.003,0.217,0.099,0.218,0.226
			c0,0.116-0.093,0.226-0.209,0.226l-0.016,0.002h-2.227l-0.681,0.617h2.916l0.016-0.001c0.115,0.001,0.204,0.12,0.202,0.227
			c-0.002,0.102-0.085,0.224-0.202,0.224h-0.02h-3.412l-0.683,0.617h5.888l0.02,0.001c0.115,0,0.206,0.119,0.208,0.223
			c0.001,0.121-0.084,0.23-0.204,0.229l-0.016-0.001h-5.896v0.616h5.883h0.02c0.135,0.002,0.213,0.124,0.212,0.235
			c0,0.103-0.098,0.212-0.216,0.212l-0.016,0.001h-5.882l-0.002,0.62h7.684l0.019-0.001c0.126,0.006,0.208,0.114,0.206,0.233
			c-0.004,0.104-0.091,0.216-0.206,0.216l-0.016-0.002h-5.617v0.62h5.539h0.115c0.105,0,0.195,0.129,0.195,0.232
			c0,0.104-0.092,0.219-0.197,0.219h-0.113h-5.54v0.614h6.501c0,0,0.235-0.544,0.235-1.146c0-0.032,0.001-4.177,0.001-4.177
			c0-0.329,0.135-0.887,0.812-1.034c0.019-0.004,0.037-0.008,0.056-0.011c1.92-0.453,3.898-0.041,5.013,0.44
			C275.101,122.625,275.147,122.466,275.14,122.397"/>
		<path fill="#FFFFFF" d="M264.35,130.6c0,0,0.833,0.002,1.307,0c1.171-0.007,1.938-0.63,1.938-0.63h-3.244L264.35,130.6z"/>
		<path fill="#FFFFFF" d="M264.35,129.525h3.761c0.174-0.174,0.397-0.496,0.455-0.616h-4.215L264.35,129.525z"/>
		<path fill="#FFFFFF" d="M263.949,130.225c0-0.061-0.038-0.085-0.106-0.085h-0.106v0.288h0.053v-0.124h0.032l0.075,0.124h0.054
			l-0.076-0.126C263.921,130.298,263.949,130.273,263.949,130.225 M263.789,130.264v-0.082h0.048c0.027,0,0.059,0.005,0.059,0.039
			c0,0.039-0.027,0.043-0.06,0.043H263.789z"/>
		<path fill="#FFFFFF" d="M263.834,130.031c-0.141,0-0.255,0.114-0.255,0.254c0,0.139,0.114,0.254,0.255,0.254
			c0.14,0,0.254-0.115,0.254-0.254C264.088,130.146,263.974,130.031,263.834,130.031 M263.834,130.489
			c-0.106,0-0.192-0.086-0.192-0.204c0-0.119,0.086-0.205,0.192-0.205c0.105,0,0.191,0.086,0.191,0.205
			C264.025,130.403,263.939,130.489,263.834,130.489"/>
	</g>
</g>
</svg>
